# xmcd
#
# Track frame offsets:
#	150
#	19446
#	45674
#	78811
#	99502
#	118352
#	134760
#	151474
#	167629
#	200100
#	227946
#	252615
#	278198
#	307951
#
# Disc length: 4399
#
# Revision: 1
# Processed by: cddbd v1.5.1PL0 Copyright (c) Steve Scherf et al.
# Submitted via: audiograbber 1.81.02
# Normalized: r0:DSETVAR1
#
DISCID=cd112d0e
DTITLE=Various Artist - The Best In Chill [CD2)
DYEAR=2003
DGENRE=Ambient
TTITLE0=Moonlight Sound Design - Am I Yours?
TTITLE1=Gene Douglas - Life Is Beautiful
TTITLE2=AB - Apollo 11
TTITLE3=Harem feat. Diva D., Nery, Nisan - Jhariye´s Dream
TTITLE4=Terracotta - Whispers
TTITLE5=Ming - Wings
TTITLE6=Oda Main - Inside
TTITLE7=Alex De Gomera - Splende
TTITLE8=Dimi Nuendo - Speak Low
TTITLE9=Wax Poetic - Purple Elephants
TTITLE10=Mint Royale - Space Farm
TTITLE11=MT - Satellite
TTITLE12=Sputnik32 - Barcelona
TTITLE13=Bob Marley - Kaya
EXTD=
EXTT0=
EXTT1=
EXTT2=
EXTT3=
EXTT4=
EXTT5=
EXTT6=
EXTT7=
EXTT8=
EXTT9=
EXTT10=
EXTT11=
EXTT12=
EXTT13=
PLAYORDER=
